<svg width="42" height="42" viewBox="0 0 42 42" fill="none" xmlns="http://www.w3.org/2000/svg">
<rect opacity="0.5" x="4.11768" y="8.23535" width="33.7647" height="33.7647" rx="16.8824" fill="url(#paint0_linear)"/>
<rect opacity="0.5" x="8.23535" y="4.11755" width="33.7647" height="33.7647" rx="16.8824" fill="url(#paint1_linear)"/>
<rect opacity="0.5" y="4.11755" width="33.7647" height="33.7647" rx="16.8824" fill="url(#paint2_linear)"/>
<rect opacity="0.5" x="4.11768" width="33.7647" height="33.7647" rx="16.8824" fill="url(#paint3_linear)"/>
<rect x="6.58826" y="6.58813" width="28.8235" height="28.8235" rx="14.4118" fill="white"/>
<path d="M18.7051 27H16.209V17.2266L13.7744 18.167V16.0928L18.4414 14.1855H18.7051V27ZM29.7705 21.709C29.7705 23.4785 29.4482 24.832 28.8037 25.7695C28.165 26.707 27.251 27.1758 26.0615 27.1758C24.8838 27.1758 23.9727 26.7217 23.3281 25.8135C22.6895 24.8994 22.3584 23.5928 22.335 21.8936V19.4766C22.335 17.7129 22.6543 16.3652 23.293 15.4336C23.9316 14.4961 24.8486 14.0273 26.0439 14.0273C27.2393 14.0273 28.1562 14.4902 28.7949 15.416C29.4336 16.3418 29.7588 17.6631 29.7705 19.3799V21.709ZM27.2744 19.1162C27.2744 18.1084 27.1748 17.3525 26.9756 16.8486C26.7764 16.3447 26.4658 16.0928 26.0439 16.0928C25.2529 16.0928 24.8428 17.0156 24.8135 18.8613V22.0518C24.8135 23.083 24.9131 23.8506 25.1123 24.3545C25.3174 24.8584 25.6338 25.1104 26.0615 25.1104C26.4658 25.1104 26.7646 24.876 26.958 24.4072C27.1572 23.9326 27.2627 23.209 27.2744 22.2363V19.1162Z" fill="#2A63A9"/>
<defs>
<linearGradient id="paint0_linear" x1="21" y1="8.23535" x2="21" y2="42.0001" gradientUnits="userSpaceOnUse">
<stop stop-color="#2A63A9"/>
<stop offset="0.0001" stop-color="#86C4FF"/>
<stop offset="1" stop-color="#40D1FF"/>
</linearGradient>
<linearGradient id="paint1_linear" x1="25.1177" y1="4.11755" x2="25.1177" y2="37.8823" gradientUnits="userSpaceOnUse">
<stop stop-color="#2A63A9"/>
<stop offset="0.0001" stop-color="#86C4FF"/>
<stop offset="1" stop-color="#40D1FF"/>
</linearGradient>
<linearGradient id="paint2_linear" x1="16.8824" y1="4.11755" x2="16.8824" y2="37.8823" gradientUnits="userSpaceOnUse">
<stop stop-color="#2A63A9"/>
<stop offset="0.0001" stop-color="#86C4FF"/>
<stop offset="1" stop-color="#40D1FF"/>
</linearGradient>
<linearGradient id="paint3_linear" x1="21" y1="0" x2="21" y2="33.7647" gradientUnits="userSpaceOnUse">
<stop stop-color="#2A63A9"/>
<stop offset="0.0001" stop-color="#86C4FF"/>
<stop offset="1" stop-color="#40D1FF"/>
</linearGradient>
</defs>
</svg>
