<svg width="42" height="42" viewBox="0 0 42 42" fill="none" xmlns="http://www.w3.org/2000/svg">
<rect opacity="0.5" x="4.11768" y="8.23535" width="33.7647" height="33.7647" rx="16.8824" fill="url(#paint0_linear)"/>
<rect opacity="0.5" x="8.23535" y="4.11755" width="33.7647" height="33.7647" rx="16.8824" fill="url(#paint1_linear)"/>
<rect opacity="0.5" y="4.11755" width="33.7647" height="33.7647" rx="16.8824" fill="url(#paint2_linear)"/>
<rect opacity="0.5" x="4.11768" width="33.7647" height="33.7647" rx="16.8824" fill="url(#paint3_linear)"/>
<rect x="6.58826" y="6.58813" width="28.8235" height="28.8235" rx="14.4118" fill="white"/>
<path d="M23.3916 22.166H24.4814V24.2314H23.3916V27H20.9043V24.2314H16.668L16.5537 22.623L20.8955 14.2031H23.3916V22.166ZM18.9707 22.166H20.9043V17.8857L20.8516 17.9824L18.9707 22.166Z" fill="#2A63A9"/>
<defs>
<linearGradient id="paint0_linear" x1="21" y1="8.23535" x2="21" y2="42.0001" gradientUnits="userSpaceOnUse">
<stop stop-color="#2A63A9"/>
<stop offset="0.0001" stop-color="#86C4FF"/>
<stop offset="1" stop-color="#40D1FF"/>
</linearGradient>
<linearGradient id="paint1_linear" x1="25.1177" y1="4.11755" x2="25.1177" y2="37.8823" gradientUnits="userSpaceOnUse">
<stop stop-color="#2A63A9"/>
<stop offset="0.0001" stop-color="#86C4FF"/>
<stop offset="1" stop-color="#40D1FF"/>
</linearGradient>
<linearGradient id="paint2_linear" x1="16.8824" y1="4.11755" x2="16.8824" y2="37.8823" gradientUnits="userSpaceOnUse">
<stop stop-color="#2A63A9"/>
<stop offset="0.0001" stop-color="#86C4FF"/>
<stop offset="1" stop-color="#40D1FF"/>
</linearGradient>
<linearGradient id="paint3_linear" x1="21" y1="0" x2="21" y2="33.7647" gradientUnits="userSpaceOnUse">
<stop stop-color="#2A63A9"/>
<stop offset="0.0001" stop-color="#86C4FF"/>
<stop offset="1" stop-color="#40D1FF"/>
</linearGradient>
</defs>
</svg>
