<svg width="42" height="42" viewBox="0 0 42 42" fill="none" xmlns="http://www.w3.org/2000/svg">
<rect opacity="0.5" x="4.11768" y="8.23535" width="33.7647" height="33.7647" rx="16.8824" fill="url(#paint0_linear)"/>
<rect opacity="0.5" x="8.23535" y="4.11755" width="33.7647" height="33.7647" rx="16.8824" fill="url(#paint1_linear)"/>
<rect opacity="0.5" y="4.11755" width="33.7647" height="33.7647" rx="16.8824" fill="url(#paint2_linear)"/>
<rect opacity="0.5" x="4.11768" width="33.7647" height="33.7647" rx="16.8824" fill="url(#paint3_linear)"/>
<rect x="6.58826" y="6.58813" width="28.8235" height="28.8235" rx="14.4118" fill="white"/>
<path d="M17.0898 20.707L17.7227 14.2031H23.9189V16.3301H19.7617L19.5332 19.0723C20.0137 18.75 20.5088 18.5889 21.0186 18.5889C22.0732 18.5889 22.8848 18.9639 23.4531 19.7139C24.0273 20.4639 24.3145 21.5244 24.3145 22.8955C24.3145 24.1787 23.9746 25.2129 23.2949 25.998C22.6152 26.7832 21.707 27.1758 20.5703 27.1758C19.8965 27.1758 19.2725 27.0176 18.6982 26.7012C18.124 26.3789 17.6699 25.9336 17.3359 25.3652C17.0078 24.7969 16.8408 24.1523 16.835 23.4316H19.2959C19.3369 23.9648 19.4688 24.3779 19.6914 24.6709C19.9141 24.9639 20.2012 25.1104 20.5527 25.1104C20.9629 25.1104 21.2793 24.9141 21.502 24.5215C21.7246 24.123 21.8359 23.5312 21.8359 22.7461C21.8359 22.0078 21.7012 21.4512 21.4316 21.0762C21.168 20.7012 20.7959 20.5137 20.3154 20.5137C19.8467 20.5137 19.4834 20.6748 19.2256 20.9971L19.0674 21.2168L17.0898 20.707Z" fill="#2A63A9"/>
<defs>
<linearGradient id="paint0_linear" x1="21" y1="8.23535" x2="21" y2="42.0001" gradientUnits="userSpaceOnUse">
<stop stop-color="#2A63A9"/>
<stop offset="0.0001" stop-color="#86C4FF"/>
<stop offset="1" stop-color="#40D1FF"/>
</linearGradient>
<linearGradient id="paint1_linear" x1="25.1177" y1="4.11755" x2="25.1177" y2="37.8823" gradientUnits="userSpaceOnUse">
<stop stop-color="#2A63A9"/>
<stop offset="0.0001" stop-color="#86C4FF"/>
<stop offset="1" stop-color="#40D1FF"/>
</linearGradient>
<linearGradient id="paint2_linear" x1="16.8824" y1="4.11755" x2="16.8824" y2="37.8823" gradientUnits="userSpaceOnUse">
<stop stop-color="#2A63A9"/>
<stop offset="0.0001" stop-color="#86C4FF"/>
<stop offset="1" stop-color="#40D1FF"/>
</linearGradient>
<linearGradient id="paint3_linear" x1="21" y1="0" x2="21" y2="33.7647" gradientUnits="userSpaceOnUse">
<stop stop-color="#2A63A9"/>
<stop offset="0.0001" stop-color="#86C4FF"/>
<stop offset="1" stop-color="#40D1FF"/>
</linearGradient>
</defs>
</svg>
