<svg width="42" height="42" viewBox="0 0 42 42" fill="none" xmlns="http://www.w3.org/2000/svg">
<rect opacity="0.5" x="4.11768" y="8.23535" width="33.7647" height="33.7647" rx="16.8824" fill="url(#paint0_linear)"/>
<rect opacity="0.5" x="8.23535" y="4.11755" width="33.7647" height="33.7647" rx="16.8824" fill="url(#paint1_linear)"/>
<rect opacity="0.5" y="4.11755" width="33.7647" height="33.7647" rx="16.8824" fill="url(#paint2_linear)"/>
<rect opacity="0.5" x="4.11768" width="33.7647" height="33.7647" rx="16.8824" fill="url(#paint3_linear)"/>
<rect x="6.58826" y="6.58813" width="28.8235" height="28.8235" rx="14.4118" fill="white"/>
<path d="M22.7676 14.0713V16.1807H22.627C21.6953 16.1865 20.9541 16.4678 20.4033 17.0244C19.8584 17.5752 19.5273 18.3486 19.4102 19.3447C19.9434 18.7354 20.6113 18.4307 21.4141 18.4307C22.3398 18.4307 23.0781 18.8262 23.6289 19.6172C24.1855 20.4082 24.4639 21.4629 24.4639 22.7812C24.4639 23.6191 24.3057 24.375 23.9893 25.0488C23.6729 25.7227 23.2275 26.2471 22.6533 26.6221C22.085 26.9912 21.4404 27.1758 20.7197 27.1758C19.5596 27.1758 18.6279 26.71 17.9248 25.7783C17.2275 24.8467 16.8789 23.5928 16.8789 22.0166V21.0938C16.8789 19.6816 17.0986 18.4453 17.5381 17.3848C17.9834 16.3242 18.6221 15.5098 19.4541 14.9414C20.292 14.3672 21.2676 14.0771 22.3809 14.0713H22.7676ZM20.6318 20.4873C20.3154 20.4873 20.0488 20.5869 19.832 20.7861C19.6211 20.9854 19.4629 21.2314 19.3574 21.5244V22.4209C19.3574 23.3232 19.4775 23.9971 19.7178 24.4424C19.958 24.8877 20.2744 25.1104 20.667 25.1104C21.0654 25.1104 21.3848 24.8965 21.625 24.4688C21.8652 24.0352 21.9854 23.4814 21.9854 22.8076C21.9854 22.1221 21.8594 21.5654 21.6074 21.1377C21.3613 20.7041 21.0361 20.4873 20.6318 20.4873Z" fill="#2A63A9"/>
<defs>
<linearGradient id="paint0_linear" x1="21" y1="8.23535" x2="21" y2="42.0001" gradientUnits="userSpaceOnUse">
<stop stop-color="#2A63A9"/>
<stop offset="0.0001" stop-color="#86C4FF"/>
<stop offset="1" stop-color="#40D1FF"/>
</linearGradient>
<linearGradient id="paint1_linear" x1="25.1177" y1="4.11755" x2="25.1177" y2="37.8823" gradientUnits="userSpaceOnUse">
<stop stop-color="#2A63A9"/>
<stop offset="0.0001" stop-color="#86C4FF"/>
<stop offset="1" stop-color="#40D1FF"/>
</linearGradient>
<linearGradient id="paint2_linear" x1="16.8824" y1="4.11755" x2="16.8824" y2="37.8823" gradientUnits="userSpaceOnUse">
<stop stop-color="#2A63A9"/>
<stop offset="0.0001" stop-color="#86C4FF"/>
<stop offset="1" stop-color="#40D1FF"/>
</linearGradient>
<linearGradient id="paint3_linear" x1="21" y1="0" x2="21" y2="33.7647" gradientUnits="userSpaceOnUse">
<stop stop-color="#2A63A9"/>
<stop offset="0.0001" stop-color="#86C4FF"/>
<stop offset="1" stop-color="#40D1FF"/>
</linearGradient>
</defs>
</svg>
