<svg width="42" height="42" viewBox="0 0 42 42" fill="none" xmlns="http://www.w3.org/2000/svg">
<rect opacity="0.5" x="4.11768" y="8.23535" width="33.7647" height="33.7647" rx="16.8824" fill="url(#paint0_linear)"/>
<rect opacity="0.5" x="8.23535" y="4.11755" width="33.7647" height="33.7647" rx="16.8824" fill="url(#paint1_linear)"/>
<rect opacity="0.5" y="4.11755" width="33.7647" height="33.7647" rx="16.8824" fill="url(#paint2_linear)"/>
<rect opacity="0.5" x="4.11768" width="33.7647" height="33.7647" rx="16.8824" fill="url(#paint3_linear)"/>
<rect x="6.58826" y="6.58813" width="28.8235" height="28.8235" rx="14.4118" fill="white"/>
<path d="M24.0068 17.6045C24.0068 18.2256 23.875 18.7764 23.6113 19.2568C23.3477 19.7373 22.9844 20.1211 22.5215 20.4082C23.0488 20.707 23.4648 21.1201 23.7695 21.6475C24.0742 22.1689 24.2266 22.7842 24.2266 23.4932C24.2266 24.6299 23.8984 25.5293 23.2422 26.1914C22.5859 26.8477 21.6924 27.1758 20.5615 27.1758C19.4307 27.1758 18.5312 26.8477 17.8633 26.1914C17.1953 25.5293 16.8613 24.6299 16.8613 23.4932C16.8613 22.7842 17.0137 22.166 17.3184 21.6387C17.623 21.1113 18.042 20.7012 18.5752 20.4082C18.1064 20.1211 17.7402 19.7373 17.4766 19.2568C17.2129 18.7764 17.0811 18.2256 17.0811 17.6045C17.0811 16.4854 17.3945 15.6094 18.0215 14.9766C18.6484 14.3438 19.4893 14.0273 20.5439 14.0273C21.6104 14.0273 22.4541 14.3467 23.0752 14.9854C23.6963 15.624 24.0068 16.4971 24.0068 17.6045ZM20.5615 25.1104C20.9365 25.1104 21.2236 24.9521 21.4229 24.6357C21.6279 24.3135 21.7305 23.8682 21.7305 23.2998C21.7305 22.7314 21.625 22.2861 21.4141 21.9639C21.2031 21.6416 20.9131 21.4805 20.5439 21.4805C20.1748 21.4805 19.8818 21.6416 19.665 21.9639C19.4541 22.2861 19.3486 22.7314 19.3486 23.2998C19.3486 23.8682 19.4541 24.3135 19.665 24.6357C19.8818 24.9521 20.1807 25.1104 20.5615 25.1104ZM21.5283 17.7363C21.5283 17.2383 21.4463 16.8398 21.2822 16.541C21.124 16.2422 20.8779 16.0928 20.5439 16.0928C20.2275 16.0928 19.9873 16.2393 19.8232 16.5322C19.6592 16.8193 19.5771 17.2207 19.5771 17.7363C19.5771 18.2402 19.6592 18.6475 19.8232 18.958C19.9873 19.2627 20.2334 19.415 20.5615 19.415C20.8896 19.415 21.1328 19.2627 21.291 18.958C21.4492 18.6475 21.5283 18.2402 21.5283 17.7363Z" fill="#2A63A9"/>
<defs>
<linearGradient id="paint0_linear" x1="21" y1="8.23535" x2="21" y2="42.0001" gradientUnits="userSpaceOnUse">
<stop stop-color="#2A63A9"/>
<stop offset="0.0001" stop-color="#86C4FF"/>
<stop offset="1" stop-color="#40D1FF"/>
</linearGradient>
<linearGradient id="paint1_linear" x1="25.1177" y1="4.11755" x2="25.1177" y2="37.8823" gradientUnits="userSpaceOnUse">
<stop stop-color="#2A63A9"/>
<stop offset="0.0001" stop-color="#86C4FF"/>
<stop offset="1" stop-color="#40D1FF"/>
</linearGradient>
<linearGradient id="paint2_linear" x1="16.8824" y1="4.11755" x2="16.8824" y2="37.8823" gradientUnits="userSpaceOnUse">
<stop stop-color="#2A63A9"/>
<stop offset="0.0001" stop-color="#86C4FF"/>
<stop offset="1" stop-color="#40D1FF"/>
</linearGradient>
<linearGradient id="paint3_linear" x1="21" y1="0" x2="21" y2="33.7647" gradientUnits="userSpaceOnUse">
<stop stop-color="#2A63A9"/>
<stop offset="0.0001" stop-color="#86C4FF"/>
<stop offset="1" stop-color="#40D1FF"/>
</linearGradient>
</defs>
</svg>
