<svg width="42" height="42" viewBox="0 0 42 42" fill="none" xmlns="http://www.w3.org/2000/svg">
<rect opacity="0.5" x="4.11768" y="8.23535" width="33.7647" height="33.7647" rx="16.8824" fill="url(#paint0_linear)"/>
<rect opacity="0.5" x="8.23535" y="4.11755" width="33.7647" height="33.7647" rx="16.8824" fill="url(#paint1_linear)"/>
<rect opacity="0.5" y="4.11755" width="33.7647" height="33.7647" rx="16.8824" fill="url(#paint2_linear)"/>
<rect opacity="0.5" x="4.11768" width="33.7647" height="33.7647" rx="16.8824" fill="url(#paint3_linear)"/>
<rect x="6.58826" y="6.58813" width="28.8235" height="28.8235" rx="14.4118" fill="white"/>
<path d="M21.6602 22.0518C21.1328 22.5908 20.5557 22.8604 19.9287 22.8604C18.9561 22.8604 18.1885 22.4707 17.626 21.6914C17.0693 20.9062 16.791 19.8604 16.791 18.5537C16.791 17.71 16.9492 16.9395 17.2656 16.2422C17.582 15.5391 18.0215 14.9941 18.584 14.6074C19.1523 14.2207 19.7852 14.0273 20.4824 14.0273C21.2031 14.0273 21.8447 14.2412 22.4072 14.6689C22.9697 15.0967 23.4062 15.7119 23.7168 16.5146C24.0273 17.3115 24.1826 18.2197 24.1826 19.2393V20.1445C24.1826 22.3242 23.7021 24.0293 22.7412 25.2598C21.7861 26.4844 20.4297 27.1084 18.6719 27.1318H18.417V24.9873H18.584C19.5566 24.9814 20.2861 24.7295 20.7725 24.2314C21.2646 23.7334 21.5605 23.0068 21.6602 22.0518ZM20.5615 20.9092C21.042 20.9092 21.4199 20.5811 21.6953 19.9248V18.7822C21.6953 17.9443 21.5811 17.2881 21.3525 16.8135C21.124 16.333 20.8281 16.0928 20.4648 16.0928C20.1074 16.0928 19.8174 16.3301 19.5947 16.8047C19.3779 17.2734 19.2695 17.8477 19.2695 18.5273C19.2695 19.2656 19.3838 19.8486 19.6123 20.2764C19.8408 20.6982 20.1572 20.9092 20.5615 20.9092Z" fill="#2A63A9"/>
<defs>
<linearGradient id="paint0_linear" x1="21" y1="8.23535" x2="21" y2="42.0001" gradientUnits="userSpaceOnUse">
<stop stop-color="#2A63A9"/>
<stop offset="0.0001" stop-color="#86C4FF"/>
<stop offset="1" stop-color="#40D1FF"/>
</linearGradient>
<linearGradient id="paint1_linear" x1="25.1177" y1="4.11755" x2="25.1177" y2="37.8823" gradientUnits="userSpaceOnUse">
<stop stop-color="#2A63A9"/>
<stop offset="0.0001" stop-color="#86C4FF"/>
<stop offset="1" stop-color="#40D1FF"/>
</linearGradient>
<linearGradient id="paint2_linear" x1="16.8824" y1="4.11755" x2="16.8824" y2="37.8823" gradientUnits="userSpaceOnUse">
<stop stop-color="#2A63A9"/>
<stop offset="0.0001" stop-color="#86C4FF"/>
<stop offset="1" stop-color="#40D1FF"/>
</linearGradient>
<linearGradient id="paint3_linear" x1="21" y1="0" x2="21" y2="33.7647" gradientUnits="userSpaceOnUse">
<stop stop-color="#2A63A9"/>
<stop offset="0.0001" stop-color="#86C4FF"/>
<stop offset="1" stop-color="#40D1FF"/>
</linearGradient>
</defs>
</svg>
