<svg width="102" height="102" viewBox="0 0 102 102" fill="none" xmlns="http://www.w3.org/2000/svg">
<rect opacity="0.5" x="10" y="20" width="82" height="82" rx="41" fill="url(#paint0_linear)"/>
<rect opacity="0.5" x="20" y="10" width="82" height="82" rx="41" fill="url(#paint1_linear)"/>
<rect opacity="0.5" y="10" width="82" height="82" rx="41" fill="url(#paint2_linear)"/>
<rect opacity="0.5" x="10" width="82" height="82" rx="41" fill="url(#paint3_linear)"/>
<rect x="16" y="16" width="70" height="70" rx="35" fill="white"/>
<path d="M56.5 41C55.7 41 55 41.7 55 42.5V46.5C55 47.3 55.7 48 56.5 48C57.3 48 58 47.3 58 46.5V42.5C58 41.7 57.3 41 56.5 41Z" fill="url(#paint4_linear)"/>
<path d="M61 32H42C39.8 32 38 33.8 38 36V66C38 68.2 39.8 70 42 70H61C63.2 70 65 68.2 65 66V36C65 33.8 63.2 32 61 32ZM45.5 66H43.5C42.7 66 42 65.3 42 64.5C42 63.7 42.7 63 43.5 63H45.5C46.3 63 47 63.7 47 64.5C47 65.3 46.3 66 45.5 66ZM45.5 61H43.5C42.7 61 42 60.3 42 59.5C42 58.7 42.7 58 43.5 58H45.5C46.3 58 47 58.7 47 59.5C47 60.3 46.3 61 45.5 61ZM45.5 56H43.5C42.7 56 42 55.3 42 54.5C42 53.7 42.7 53 43.5 53H45.5C46.3 53 47 53.7 47 54.5C47 55.3 46.3 56 45.5 56ZM52.5 66H50.5C49.7 66 49 65.3 49 64.5C49 63.7 49.7 63 50.5 63H52.5C53.3 63 54 63.7 54 64.5C54 65.3 53.3 66 52.5 66ZM52.5 61H50.5C49.7 61 49 60.3 49 59.5C49 58.7 49.7 58 50.5 58H52.5C53.3 58 54 58.7 54 59.5C54 60.3 53.3 61 52.5 61ZM52.5 56H50.5C49.7 56 49 55.3 49 54.5C49 53.7 49.7 53 50.5 53H52.5C53.3 53 54 53.7 54 54.5C54 55.3 53.3 56 52.5 56ZM61 64.5C61 65.3 60.3 66 59.5 66H57.5C56.7 66 56 65.3 56 64.5V59.5C56 58.7 56.7 58 57.5 58H59.5C60.3 58 61 58.7 61 59.5V64.5ZM59.5 56H57.5C56.7 56 56 55.3 56 54.5C56 53.7 56.7 53 57.5 53H59.5C60.3 53 61 53.7 61 54.5C61 55.3 60.3 56 59.5 56ZM61 48.5C61 49.1 60.6 49.5 60 49.5H43C42.4 49.5 42 49.1 42 48.5V39.5C42 38.9 42.4 38.5 43 38.5H60C60.6 38.5 61 38.9 61 39.5V48.5Z" fill="url(#paint5_linear)"/>
<defs>
<linearGradient id="paint0_linear" x1="51" y1="20" x2="51" y2="102" gradientUnits="userSpaceOnUse">
<stop stop-color="#2A63A9"/>
<stop offset="0.0001" stop-color="#86C4FF"/>
<stop offset="1" stop-color="#40D1FF"/>
</linearGradient>
<linearGradient id="paint1_linear" x1="61" y1="10" x2="61" y2="92" gradientUnits="userSpaceOnUse">
<stop stop-color="#2A63A9"/>
<stop offset="0.0001" stop-color="#86C4FF"/>
<stop offset="1" stop-color="#40D1FF"/>
</linearGradient>
<linearGradient id="paint2_linear" x1="41" y1="10" x2="41" y2="92" gradientUnits="userSpaceOnUse">
<stop stop-color="#2A63A9"/>
<stop offset="0.0001" stop-color="#86C4FF"/>
<stop offset="1" stop-color="#40D1FF"/>
</linearGradient>
<linearGradient id="paint3_linear" x1="51" y1="0" x2="51" y2="82" gradientUnits="userSpaceOnUse">
<stop stop-color="#2A63A9"/>
<stop offset="0.0001" stop-color="#86C4FF"/>
<stop offset="1" stop-color="#40D1FF"/>
</linearGradient>
<linearGradient id="paint4_linear" x1="56.5" y1="41" x2="56.5" y2="48" gradientUnits="userSpaceOnUse">
<stop offset="0.0001" stop-color="#86C4FF"/>
<stop offset="0.119792" stop-color="#2A63A9"/>
<stop offset="1" stop-color="#40D1FF"/>
</linearGradient>
<linearGradient id="paint5_linear" x1="51.5" y1="32" x2="51.5" y2="70" gradientUnits="userSpaceOnUse">
<stop offset="0.0001" stop-color="#86C4FF"/>
<stop offset="0.119792" stop-color="#2A63A9"/>
<stop offset="1" stop-color="#40D1FF"/>
</linearGradient>
</defs>
</svg>
