<svg width="102" height="102" viewBox="0 0 102 102" fill="none" xmlns="http://www.w3.org/2000/svg">
<rect opacity="0.5" x="10" y="20" width="82" height="82" rx="41" fill="url(#paint0_linear)"/>
<rect opacity="0.5" x="20" y="10" width="82" height="82" rx="41" fill="url(#paint1_linear)"/>
<rect opacity="0.5" y="10" width="82" height="82" rx="41" fill="url(#paint2_linear)"/>
<rect opacity="0.5" x="10" width="82" height="82" rx="41" fill="url(#paint3_linear)"/>
<rect x="16" y="16" width="70" height="70" rx="35" fill="white"/>
<path d="M65.8711 49.0961C65.8711 48.304 65.1921 47.7382 64.5132 47.7382H40.75C39.9579 47.7382 39.3921 48.4171 39.3921 49.0961C39.3921 49.775 40.0711 50.454 40.75 50.454H62.3241C63.7817 50.454 65.8711 50.5536 65.8711 49.0961ZM40.75 53.3961C39.9579 53.3961 39.3921 54.075 39.3921 54.754C39.3921 55.4329 40.0711 56.1119 40.75 56.1119H50.5947C51.3869 56.1119 51.9526 55.4329 51.9526 54.754C51.9526 54.075 51.2737 53.3961 50.5947 53.3961H40.75ZM56.5921 44.9092C57.3842 44.9092 57.95 44.2303 57.95 43.5513C57.95 42.8724 57.2711 42.1934 56.5921 42.1934H47.5395C46.7474 42.1934 46.1816 42.8724 46.1816 43.5513C46.1816 44.2303 46.8605 44.9092 47.5395 44.9092H56.5921ZM70.7368 32.9145H32.2632C31.0184 32.9145 30 33.9329 30 35.1776V63.4671C30 64.7119 31.0184 65.7303 32.2632 65.7303H51.5C52.7499 65.7303 53.7632 64.717 53.7632 63.4671C53.7632 62.2172 52.7499 61.204 51.5 61.204H40.598C39.1196 61.204 37.9905 59.8306 36.9451 58.7852C35.8996 57.7398 34.5263 56.6107 34.5263 55.1322V43.5125C34.5263 42.0341 35.8996 40.905 36.9451 39.8596C37.9905 38.8141 39.1196 37.4408 40.598 37.4408H62.402C63.8804 37.4408 65.0095 38.8141 66.0549 39.8596C67.1004 40.905 68.4737 42.0341 68.4737 43.5125V52.4552C68.4737 55.4122 65.0789 58.247 65.0789 61.204C65.0789 63.7038 67.1054 65.7303 69.6053 65.7303H70.7368C71.9816 65.7303 73 64.7119 73 63.4671V35.1776C73 33.9329 71.9816 32.9145 70.7368 32.9145Z" fill="url(#paint4_linear)"/>
<path d="M59.421 64.2592C58.0717 64.2592 56.592 65.1679 56.592 66.5172V68.3329C56.592 68.6724 56.8183 68.7855 57.0447 68.7855C57.2909 68.7855 57.4839 68.5993 57.6824 68.4537L58.7833 67.6463C58.9818 67.5008 59.1748 67.3145 59.421 67.3145C59.6672 67.3145 59.8601 67.5008 60.0587 67.6463L61.1596 68.4537C61.3581 68.5993 61.5511 68.7855 61.7973 68.7855C62.0236 68.7855 62.2499 68.5592 62.2499 68.3329V66.5172C62.2499 65.1679 60.7703 64.2592 59.421 64.2592ZM59.421 61.4303C61.571 61.4303 63.3815 59.6197 63.3815 57.4697C63.3815 55.3197 61.571 53.5092 59.421 53.5092C57.271 53.5092 55.4604 55.3197 55.4604 57.4697C55.4604 59.6197 57.271 61.4303 59.421 61.4303Z" fill="url(#paint5_linear)"/>
<defs>
<linearGradient id="paint0_linear" x1="51" y1="20" x2="51" y2="102" gradientUnits="userSpaceOnUse">
<stop stop-color="#2A63A9"/>
<stop offset="0.0001" stop-color="#86C4FF"/>
<stop offset="1" stop-color="#40D1FF"/>
</linearGradient>
<linearGradient id="paint1_linear" x1="61" y1="10" x2="61" y2="92" gradientUnits="userSpaceOnUse">
<stop stop-color="#2A63A9"/>
<stop offset="0.0001" stop-color="#86C4FF"/>
<stop offset="1" stop-color="#40D1FF"/>
</linearGradient>
<linearGradient id="paint2_linear" x1="41" y1="10" x2="41" y2="92" gradientUnits="userSpaceOnUse">
<stop stop-color="#2A63A9"/>
<stop offset="0.0001" stop-color="#86C4FF"/>
<stop offset="1" stop-color="#40D1FF"/>
</linearGradient>
<linearGradient id="paint3_linear" x1="51" y1="0" x2="51" y2="82" gradientUnits="userSpaceOnUse">
<stop stop-color="#2A63A9"/>
<stop offset="0.0001" stop-color="#86C4FF"/>
<stop offset="1" stop-color="#40D1FF"/>
</linearGradient>
<linearGradient id="paint4_linear" x1="51.5" y1="32.9145" x2="51.5" y2="65.7303" gradientUnits="userSpaceOnUse">
<stop offset="0.0001" stop-color="#86C4FF"/>
<stop offset="0.119792" stop-color="#2A63A9"/>
<stop offset="1" stop-color="#40D1FF"/>
</linearGradient>
<linearGradient id="paint5_linear" x1="59.421" y1="53.5092" x2="59.421" y2="68.7855" gradientUnits="userSpaceOnUse">
<stop offset="0.0001" stop-color="#86C4FF"/>
<stop offset="0.119792" stop-color="#2A63A9"/>
<stop offset="1" stop-color="#40D1FF"/>
</linearGradient>
</defs>
</svg>
