<svg width="102" height="102" viewBox="0 0 102 102" fill="none" xmlns="http://www.w3.org/2000/svg">
<rect opacity="0.5" x="10" y="20" width="82" height="82" rx="41" fill="url(#paint0_linear)"/>
<rect opacity="0.5" x="20" y="10" width="82" height="82" rx="41" fill="url(#paint1_linear)"/>
<rect opacity="0.5" y="10" width="82" height="82" rx="41" fill="url(#paint2_linear)"/>
<rect opacity="0.5" x="10" width="82" height="82" rx="41" fill="url(#paint3_linear)"/>
<rect x="16" y="16" width="70" height="70" rx="35" fill="white"/>
<path d="M51.5 47.5C48.7 47.5 46.5 49.5 46.5 53.5C46.5 57.5 48.7 59.5 51.5 59.5C54.3 59.5 56.5 57.5 56.5 53.5C56.5 49.5 54.3 47.5 51.5 47.5ZM41 51.5C39.9 51.5 39 52.4 39 53.5C39 54.6 39.9 55.5 41 55.5C42.1 55.5 43 54.6 43 53.5C43 52.4 42.1 51.5 41 51.5ZM62 51.5C60.9 51.5 60 52.4 60 53.5C60 54.6 60.9 55.5 62 55.5C63.1 55.5 64 54.6 64 53.5C64 52.4 63.1 51.5 62 51.5ZM65.6 35H37.6C36.8 35 36.1 35.7 36.1 36.5C36.1 37.3 36.8 38 37.6 38H65.6C66.4 38 67.1 37.3 67.1 36.5C67.1 35.6 66.4 35 65.6 35Z" fill="url(#paint4_linear)"/>
<path d="M70.5 41.2C70.4 41.1 70.3 41 70.2 40.9C69.9 40.6 69.4 40.4 68.9 40.4H64.6H38.3H34C32.9 40.4 32 41.3 32 42.4V64.4C32 65.5 32.9 66.4 34 66.4H69C70.1 66.4 71 65.5 71 64.4V42.4C71 42 70.8 41.5 70.5 41.2ZM67.5 54.9624C67.5 56.9162 65.694 58.431 64.3125 59.8125C62.931 61.194 61.4161 63 59.4624 63H43.5376C41.5839 63 40.069 61.194 38.6875 59.8125C37.306 58.431 35.5 56.9162 35.5 54.9624V52.0376C35.5 50.0839 37.306 48.569 38.6875 47.1875C40.069 45.806 41.5839 44 43.5376 44H59.4624C61.4161 44 62.931 45.806 64.3125 47.1875C65.694 48.569 67.5 50.0839 67.5 52.0376V54.9624Z" fill="url(#paint5_linear)"/>
<defs>
<linearGradient id="paint0_linear" x1="51" y1="20" x2="51" y2="102" gradientUnits="userSpaceOnUse">
<stop stop-color="#2A63A9"/>
<stop offset="0.0001" stop-color="#86C4FF"/>
<stop offset="1" stop-color="#40D1FF"/>
</linearGradient>
<linearGradient id="paint1_linear" x1="61" y1="10" x2="61" y2="92" gradientUnits="userSpaceOnUse">
<stop stop-color="#2A63A9"/>
<stop offset="0.0001" stop-color="#86C4FF"/>
<stop offset="1" stop-color="#40D1FF"/>
</linearGradient>
<linearGradient id="paint2_linear" x1="41" y1="10" x2="41" y2="92" gradientUnits="userSpaceOnUse">
<stop stop-color="#2A63A9"/>
<stop offset="0.0001" stop-color="#86C4FF"/>
<stop offset="1" stop-color="#40D1FF"/>
</linearGradient>
<linearGradient id="paint3_linear" x1="51" y1="0" x2="51" y2="82" gradientUnits="userSpaceOnUse">
<stop stop-color="#2A63A9"/>
<stop offset="0.0001" stop-color="#86C4FF"/>
<stop offset="1" stop-color="#40D1FF"/>
</linearGradient>
<linearGradient id="paint4_linear" x1="51.6" y1="35" x2="51.6" y2="59.5" gradientUnits="userSpaceOnUse">
<stop offset="0.0001" stop-color="#86C4FF"/>
<stop offset="0.119792" stop-color="#2A63A9"/>
<stop offset="1" stop-color="#40D1FF"/>
</linearGradient>
<linearGradient id="paint5_linear" x1="51.5" y1="40.4" x2="51.5" y2="66.4" gradientUnits="userSpaceOnUse">
<stop offset="0.0001" stop-color="#86C4FF"/>
<stop offset="0.119792" stop-color="#2A63A9"/>
<stop offset="1" stop-color="#40D1FF"/>
</linearGradient>
</defs>
</svg>
