<svg width="1920" height="76" viewBox="0 0 1920 76" fill="none" xmlns="http://www.w3.org/2000/svg">
<path fill-rule="evenodd" clip-rule="evenodd" d="M0 32.683L80 34.378C160 36.2614 320 39.8398 480 32.683C640 25.3378 800 7.25748 960 1.79571C1120 -3.47772 1280 3.67908 1440 12.7192C1600 21.7594 1760 32.683 1840 37.9564L1920 43.4182V76.0004H1840C1760 76.0004 1600 76.0004 1440 76.0004C1280 76.0004 1120 76.0004 960 76.0004C800 76.0004 640 76.0004 480 76.0004C320 76.0004 160 76.0004 80 76.0004H0V32.683Z" fill="white"/>
</svg>
